<mxfile host="app.diagrams.net" modified="2021-01-28T02:18:03.758Z" agent="5.0 (Windows NT 10.0; Win64; x64) AppleWebKit/537.36 (KHTML, like Gecko) Chrome/87.0.4280.141 Safari/537.36" etag="Qr6HVX_HkFgyw-0fKiah" version="14.1.8" type="github">
  <diagram name="Page-1" id="74e2e168-ea6b-b213-b513-2b3c1d86103e">
    <mxGraphModel dx="1021" dy="462" grid="1" gridSize="10" guides="1" tooltips="1" connect="1" arrows="1" fold="1" page="1" pageScale="1" pageWidth="1100" pageHeight="850" background="#ffffff" math="0" shadow="0">
      <root>
        <mxCell id="0" />
        <mxCell id="1" parent="0" />
        <mxCell id="77e6c97f196da883-1" value="BATCH" style="swimlane;html=1;childLayout=stackLayout;startSize=20;rounded=0;shadow=0;labelBackgroundColor=none;strokeWidth=1;fontFamily=Verdana;fontSize=8;align=center;" parent="1" vertex="1">
          <mxGeometry x="80" y="40" width="660" height="520" as="geometry" />
        </mxCell>
        <mxCell id="77e6c97f196da883-2" value="Database" style="swimlane;html=1;startSize=20;fillColor=#d5e8d4;strokeColor=#82b366;" parent="77e6c97f196da883-1" vertex="1">
          <mxGeometry y="20" width="160" height="500" as="geometry" />
        </mxCell>
        <mxCell id="77e6c97f196da883-8" value="Données des client" style="rounded=1;whiteSpace=wrap;html=1;shadow=0;labelBackgroundColor=none;strokeWidth=1;fontFamily=Verdana;fontSize=8;align=center;fillColor=#d5e8d4;strokeColor=#82b366;" parent="77e6c97f196da883-2" vertex="1">
          <mxGeometry x="20" y="65" width="100" height="60" as="geometry" />
        </mxCell>
        <mxCell id="77e6c97f196da883-9" value="Données des produit" style="rounded=1;whiteSpace=wrap;html=1;shadow=0;labelBackgroundColor=none;strokeWidth=1;fontFamily=Verdana;fontSize=8;align=center;fillColor=#d5e8d4;strokeColor=#82b366;" parent="77e6c97f196da883-2" vertex="1">
          <mxGeometry x="20" y="155" width="100" height="60" as="geometry" />
        </mxCell>
        <mxCell id="77e6c97f196da883-3" value="ItemReader" style="swimlane;html=1;startSize=20;fillColor=#f8cecc;strokeColor=#b85450;" parent="77e6c97f196da883-1" vertex="1">
          <mxGeometry x="160" y="20" width="160" height="500" as="geometry" />
        </mxCell>
        <mxCell id="77e6c97f196da883-11" value="Lecture et récupération des données clients/produits" style="rounded=1;whiteSpace=wrap;html=1;shadow=0;labelBackgroundColor=none;strokeWidth=1;fontFamily=Verdana;fontSize=8;align=center;fillColor=#f8cecc;strokeColor=#b85450;" parent="77e6c97f196da883-3" vertex="1">
          <mxGeometry x="40" y="110" width="100" height="70" as="geometry" />
        </mxCell>
        <mxCell id="77e6c97f196da883-6" value="ItemProcessor" style="swimlane;html=1;startSize=20;fillColor=#fff2cc;strokeColor=#d6b656;" parent="77e6c97f196da883-1" vertex="1">
          <mxGeometry x="320" y="20" width="180" height="500" as="geometry" />
        </mxCell>
        <mxCell id="EEwX8gpcFkUaK1xZO6Xq-3" value="Récupération et traitement des données" style="rounded=1;whiteSpace=wrap;html=1;shadow=0;labelBackgroundColor=none;strokeWidth=1;fontFamily=Verdana;fontSize=8;align=center;fillColor=#fff2cc;strokeColor=#d6b656;" vertex="1" parent="77e6c97f196da883-6">
          <mxGeometry x="30" y="110" width="100" height="70" as="geometry" />
        </mxCell>
        <mxCell id="EEwX8gpcFkUaK1xZO6Xq-7" style="edgeStyle=orthogonalEdgeStyle;rounded=0;orthogonalLoop=1;jettySize=auto;html=1;exitX=0.5;exitY=1;exitDx=0;exitDy=0;entryX=0.5;entryY=0;entryDx=0;entryDy=0;" edge="1" parent="77e6c97f196da883-6" source="EEwX8gpcFkUaK1xZO6Xq-5" target="EEwX8gpcFkUaK1xZO6Xq-6">
          <mxGeometry relative="1" as="geometry" />
        </mxCell>
        <mxCell id="EEwX8gpcFkUaK1xZO6Xq-5" value="Produit.date = Date courante ?" style="rhombus;whiteSpace=wrap;html=1;fillColor=#f5f5f5;strokeColor=#666666;fontColor=#333333;" vertex="1" parent="77e6c97f196da883-6">
          <mxGeometry x="10" y="205" width="140" height="102" as="geometry" />
        </mxCell>
        <mxCell id="EEwX8gpcFkUaK1xZO6Xq-6" value="Produit.date - Date courante = 5 jours ?" style="rhombus;whiteSpace=wrap;html=1;fillColor=#f5f5f5;strokeColor=#666666;fontColor=#333333;" vertex="1" parent="77e6c97f196da883-6">
          <mxGeometry x="10" y="330" width="140" height="102" as="geometry" />
        </mxCell>
        <mxCell id="EEwX8gpcFkUaK1xZO6Xq-12" value="" style="ellipse;html=1;shape=endState;fillColor=#000000;strokeColor=#ff0000;" vertex="1" parent="77e6c97f196da883-6">
          <mxGeometry x="69.5" y="470" width="21" height="20" as="geometry" />
        </mxCell>
        <mxCell id="EEwX8gpcFkUaK1xZO6Xq-11" style="edgeStyle=orthogonalEdgeStyle;rounded=0;orthogonalLoop=1;jettySize=auto;html=1;exitX=0.5;exitY=1;exitDx=0;exitDy=0;entryX=0.5;entryY=0;entryDx=0;entryDy=0;" edge="1" parent="77e6c97f196da883-6" source="EEwX8gpcFkUaK1xZO6Xq-6" target="EEwX8gpcFkUaK1xZO6Xq-12">
          <mxGeometry relative="1" as="geometry">
            <mxPoint x="80.17647058823536" y="460" as="targetPoint" />
          </mxGeometry>
        </mxCell>
        <mxCell id="EEwX8gpcFkUaK1xZO6Xq-18" value="NOK" style="text;html=1;strokeColor=none;fillColor=none;align=center;verticalAlign=middle;whiteSpace=wrap;rounded=0;" vertex="1" parent="77e6c97f196da883-6">
          <mxGeometry x="90" y="440" width="40" height="20" as="geometry" />
        </mxCell>
        <mxCell id="EEwX8gpcFkUaK1xZO6Xq-19" value="NOK" style="text;html=1;strokeColor=none;fillColor=none;align=center;verticalAlign=middle;whiteSpace=wrap;rounded=0;" vertex="1" parent="77e6c97f196da883-6">
          <mxGeometry x="90.5" y="307" width="40" height="20" as="geometry" />
        </mxCell>
        <mxCell id="EEwX8gpcFkUaK1xZO6Xq-20" value="OK" style="text;html=1;strokeColor=none;fillColor=none;align=center;verticalAlign=middle;whiteSpace=wrap;rounded=0;" vertex="1" parent="77e6c97f196da883-6">
          <mxGeometry x="140" y="230" width="40" height="20" as="geometry" />
        </mxCell>
        <mxCell id="77e6c97f196da883-7" value="ItemWriter" style="swimlane;html=1;startSize=20;fillColor=#dae8fc;strokeColor=#6c8ebf;" parent="77e6c97f196da883-1" vertex="1">
          <mxGeometry x="500" y="20" width="160" height="500" as="geometry" />
        </mxCell>
        <mxCell id="EEwX8gpcFkUaK1xZO6Xq-8" value="Envoi d&#39;un mail au client lié au produit" style="rounded=1;whiteSpace=wrap;html=1;shadow=0;labelBackgroundColor=none;strokeWidth=1;fontFamily=Verdana;fontSize=8;align=center;fillColor=#dae8fc;strokeColor=#6c8ebf;" vertex="1" parent="77e6c97f196da883-7">
          <mxGeometry x="40" y="110" width="100" height="70" as="geometry" />
        </mxCell>
        <mxCell id="EEwX8gpcFkUaK1xZO6Xq-17" value="OK" style="text;html=1;strokeColor=none;fillColor=none;align=center;verticalAlign=middle;whiteSpace=wrap;rounded=0;" vertex="1" parent="77e6c97f196da883-7">
          <mxGeometry x="-38" y="390" width="37" height="20" as="geometry" />
        </mxCell>
        <mxCell id="EEwX8gpcFkUaK1xZO6Xq-1" style="edgeStyle=orthogonalEdgeStyle;rounded=0;orthogonalLoop=1;jettySize=auto;html=1;exitX=1;exitY=0.5;exitDx=0;exitDy=0;" edge="1" parent="77e6c97f196da883-1" source="77e6c97f196da883-8" target="77e6c97f196da883-11">
          <mxGeometry relative="1" as="geometry">
            <Array as="points">
              <mxPoint x="170" y="115" />
              <mxPoint x="170" y="165" />
            </Array>
          </mxGeometry>
        </mxCell>
        <mxCell id="EEwX8gpcFkUaK1xZO6Xq-2" style="edgeStyle=orthogonalEdgeStyle;rounded=0;orthogonalLoop=1;jettySize=auto;html=1;exitX=1;exitY=0.5;exitDx=0;exitDy=0;entryX=0;entryY=0.75;entryDx=0;entryDy=0;" edge="1" parent="77e6c97f196da883-1" source="77e6c97f196da883-9" target="77e6c97f196da883-11">
          <mxGeometry relative="1" as="geometry">
            <Array as="points">
              <mxPoint x="170" y="205" />
              <mxPoint x="170" y="182" />
            </Array>
          </mxGeometry>
        </mxCell>
        <mxCell id="EEwX8gpcFkUaK1xZO6Xq-4" style="edgeStyle=orthogonalEdgeStyle;rounded=0;orthogonalLoop=1;jettySize=auto;html=1;exitX=1;exitY=0.5;exitDx=0;exitDy=0;entryX=0;entryY=0.5;entryDx=0;entryDy=0;" edge="1" parent="77e6c97f196da883-1" source="77e6c97f196da883-11" target="EEwX8gpcFkUaK1xZO6Xq-3">
          <mxGeometry relative="1" as="geometry" />
        </mxCell>
        <mxCell id="EEwX8gpcFkUaK1xZO6Xq-9" style="edgeStyle=orthogonalEdgeStyle;rounded=0;orthogonalLoop=1;jettySize=auto;html=1;entryX=0;entryY=0.5;entryDx=0;entryDy=0;" edge="1" parent="77e6c97f196da883-1" source="EEwX8gpcFkUaK1xZO6Xq-5" target="EEwX8gpcFkUaK1xZO6Xq-8">
          <mxGeometry relative="1" as="geometry" />
        </mxCell>
        <mxCell id="EEwX8gpcFkUaK1xZO6Xq-10" style="edgeStyle=orthogonalEdgeStyle;rounded=0;orthogonalLoop=1;jettySize=auto;html=1;entryX=0;entryY=0.5;entryDx=0;entryDy=0;" edge="1" parent="77e6c97f196da883-1" source="EEwX8gpcFkUaK1xZO6Xq-6" target="EEwX8gpcFkUaK1xZO6Xq-8">
          <mxGeometry relative="1" as="geometry" />
        </mxCell>
        <mxCell id="EEwX8gpcFkUaK1xZO6Xq-22" style="edgeStyle=orthogonalEdgeStyle;rounded=0;orthogonalLoop=1;jettySize=auto;html=1;exitX=0.5;exitY=1;exitDx=0;exitDy=0;entryX=1;entryY=0.5;entryDx=0;entryDy=0;" edge="1" parent="77e6c97f196da883-1" source="EEwX8gpcFkUaK1xZO6Xq-8" target="EEwX8gpcFkUaK1xZO6Xq-12">
          <mxGeometry relative="1" as="geometry" />
        </mxCell>
      </root>
    </mxGraphModel>
  </diagram>
</mxfile>
